<svg xmlns="http://www.w3.org/2000/svg" viewBox="0 0 64 64" fill="none">
  <title>RMF Commander shield mark</title>
  
  <path d="M32 4 L56 12 V32 C56 47 44 56 32 60 C20 56 8 47 8 32 V12 Z" fill="#1E2761"></path>
  
  <path d="M32 8 L52 14.5 V32 C52 44 42 52 32 55.6 C22 52 12 44 12 32 V14.5 Z" stroke="#4A90D9" stroke-width="1" fill="none" opacity="0.7"></path>
  
  <path d="M32 22 L24 30 L26.5 32 L32 26.5 L37.5 32 L40 30 Z" fill="#4A90D9"></path>
  <path d="M32 30 L24 38 L26.5 40 L32 34.5 L37.5 40 L40 38 Z" fill="#CADCFC"></path>
  <path d="M32 38 L24 46 L26.5 48 L32 42.5 L37.5 48 L40 46 Z" fill="#FFFFFF"></path>
</svg>